# xmcd CD database file
#
# Track frame offsets:
#	183
#	21725
#	33540
#	43893
#	60923
#	75333
#	82005
#	95675
#	106938
#	121128
#	139373
#	164105
#
# Disc length: 2359 seconds
#
# Revision: 0
# Processed by: cddbd v1.4PL0 Copyright (c) Steve Scherf et al.
# Submitted via: Feurio! 1.63 - http://www.feurio.com
#
DISCID=a409350c
DTITLE=John Denver - Back home again
DYEAR=1900
DGENRE=country
TTITLE0=Back home again
TTITLE1=On the road
TTITLE2=Grandma´s  feather bed
TTITLE3=Matthew
TTITLE4=Tank God I´m a country boy
TTITLE5=The music is you
TTITLE6=Annie´s song
TTITLE7=It´s up to you
TTITLE8=Cool an´ green an´ shady
TTITLE9=Eclipse
TTITLE10=Sweet surrender
TTITLE11=This old guitar
EXTD=
EXTT0=
EXTT1=
EXTT2=
EXTT3=
EXTT4=
EXTT5=
EXTT6=
EXTT7=
EXTT8=
EXTT9=
EXTT10=
EXTT11=
PLAYORDER=
